<svg width="138" height="57" viewBox="0 0 138 57" fill="none" xmlns="http://www.w3.org/2000/svg">
<path d="M0.303977 44V0.363635H8.20881V37.3736H27.4276V44H0.303977ZM48.223 44.6392C45.027 44.6392 42.2571 43.9361 39.9134 42.5298C37.5696 41.1236 35.7514 39.1562 34.4588 36.6278C33.1804 34.0994 32.5412 31.1449 32.5412 27.7642C32.5412 24.3835 33.1804 21.4219 34.4588 18.8793C35.7514 16.3366 37.5696 14.3622 39.9134 12.956C42.2571 11.5497 45.027 10.8466 48.223 10.8466C51.419 10.8466 54.1889 11.5497 56.5327 12.956C58.8764 14.3622 60.6875 16.3366 61.9659 18.8793C63.2585 21.4219 63.9048 24.3835 63.9048 27.7642C63.9048 31.1449 63.2585 34.0994 61.9659 36.6278C60.6875 39.1562 58.8764 41.1236 56.5327 42.5298C54.1889 43.9361 51.419 44.6392 48.223 44.6392ZM48.2656 38.4602C49.9986 38.4602 51.4474 37.9844 52.6122 37.0327C53.777 36.0668 54.6435 34.7741 55.2116 33.1548C55.794 31.5355 56.0852 29.7315 56.0852 27.7429C56.0852 25.7401 55.794 23.929 55.2116 22.3097C54.6435 20.6761 53.777 19.3764 52.6122 18.4105C51.4474 17.4446 49.9986 16.9616 48.2656 16.9616C46.4901 16.9616 45.0128 17.4446 43.8338 18.4105C42.669 19.3764 41.7955 20.6761 41.2131 22.3097C40.6449 23.929 40.3608 25.7401 40.3608 27.7429C40.3608 29.7315 40.6449 31.5355 41.2131 33.1548C41.7955 34.7741 42.669 36.0668 43.8338 37.0327C45.0128 37.9844 46.4901 38.4602 48.2656 38.4602ZM84.6843 56.9545C81.9144 56.9545 79.5352 56.5781 77.5465 55.8253C75.5579 55.0866 73.9599 54.0923 72.7525 52.8423C71.5451 51.5923 70.707 50.2074 70.2383 48.6875L77.1843 47.0043C77.4968 47.6435 77.9513 48.2756 78.5479 48.9006C79.1445 49.5398 79.9471 50.0653 80.9556 50.4773C81.9783 50.9034 83.2638 51.1165 84.8121 51.1165C86.9996 51.1165 88.8107 50.5838 90.2454 49.5185C91.68 48.4673 92.3974 46.7344 92.3974 44.3196V38.1193H92.0139C91.6161 38.9148 91.0337 39.7315 90.2667 40.5696C89.5139 41.4077 88.5124 42.1108 87.2624 42.679C86.0266 43.2472 84.4712 43.5312 82.5962 43.5312C80.082 43.5312 77.8022 42.9418 75.7567 41.7628C73.7255 40.5696 72.1062 38.794 70.8988 36.4361C69.7056 34.0639 69.109 31.0952 69.109 27.5298C69.109 23.9361 69.7056 20.9034 70.8988 18.4318C72.1062 15.946 73.7326 14.0639 75.7781 12.7855C77.8235 11.4929 80.1033 10.8466 82.6175 10.8466C84.5352 10.8466 86.1119 11.1733 87.3477 11.8267C88.5977 12.4659 89.592 13.2401 90.3306 14.1491C91.0692 15.044 91.6303 15.8892 92.0139 16.6847H92.44V11.2727H100.047V44.5327C100.047 47.331 99.3789 49.6463 98.0437 51.4787C96.7085 53.3111 94.8832 54.6818 92.5678 55.5909C90.2525 56.5 87.6246 56.9545 84.6843 56.9545ZM84.7482 37.4801C86.3817 37.4801 87.7738 37.0824 88.9244 36.2869C90.0749 35.4915 90.9485 34.348 91.5451 32.8565C92.1417 31.3651 92.44 29.5753 92.44 27.4872C92.44 25.4276 92.1417 23.6236 91.5451 22.0753C90.9627 20.527 90.0962 19.3267 88.9457 18.4744C87.8093 17.608 86.4102 17.1747 84.7482 17.1747C83.0295 17.1747 81.5948 17.6222 80.4442 18.517C79.2937 19.4119 78.4272 20.6406 77.8448 22.2031C77.2624 23.7514 76.9712 25.5128 76.9712 27.4872C76.9712 29.4901 77.2624 31.2443 77.8448 32.75C78.4414 34.2415 79.315 35.4062 80.4656 36.2443C81.6303 37.0682 83.0579 37.4801 84.7482 37.4801ZM122.227 44.6392C119.031 44.6392 116.261 43.9361 113.917 42.5298C111.574 41.1236 109.755 39.1562 108.463 36.6278C107.184 34.0994 106.545 31.1449 106.545 27.7642C106.545 24.3835 107.184 21.4219 108.463 18.8793C109.755 16.3366 111.574 14.3622 113.917 12.956C116.261 11.5497 119.031 10.8466 122.227 10.8466C125.423 10.8466 128.193 11.5497 130.537 12.956C132.88 14.3622 134.691 16.3366 135.97 18.8793C137.262 21.4219 137.909 24.3835 137.909 27.7642C137.909 31.1449 137.262 34.0994 135.97 36.6278C134.691 39.1562 132.88 41.1236 130.537 42.5298C128.193 43.9361 125.423 44.6392 122.227 44.6392ZM122.27 38.4602C124.002 38.4602 125.451 37.9844 126.616 37.0327C127.781 36.0668 128.647 34.7741 129.216 33.1548C129.798 31.5355 130.089 29.7315 130.089 27.7429C130.089 25.7401 129.798 23.929 129.216 22.3097C128.647 20.6761 127.781 19.3764 126.616 18.4105C125.451 17.4446 124.002 16.9616 122.27 16.9616C120.494 16.9616 119.017 17.4446 117.838 18.4105C116.673 19.3764 115.799 20.6761 115.217 22.3097C114.649 23.929 114.365 25.7401 114.365 27.7429C114.365 29.7315 114.649 31.5355 115.217 33.1548C115.799 34.7741 116.673 36.0668 117.838 37.0327C119.017 37.9844 120.494 38.4602 122.27 38.4602Z" fill="#687B78"/>
</svg>
